<?xml version="1.0" encoding="UTF-8" standalone="no"?>
<!-- Created with Inkscape (http://www.inkscape.org/) -->

<svg
   xmlns:dc="http://purl.org/dc/elements/1.1/"
   xmlns:cc="http://creativecommons.org/ns#"
   xmlns:rdf="http://www.w3.org/1999/02/22-rdf-syntax-ns#"
   xmlns:svg="http://www.w3.org/2000/svg"
   xmlns="http://www.w3.org/2000/svg"
   xmlns:sodipodi="http://sodipodi.sourceforge.net/DTD/sodipodi-0.dtd"
   xmlns:inkscape="http://www.inkscape.org/namespaces/inkscape"
   width="77.203041mm"
   height="41.759716mm"
   viewBox="0 0 273.55408 147.9675"
   id="svg2"
   version="1.1"
   inkscape:version="0.91 r13725"
   sodipodi:docname="logo.svg">
  <defs
     id="defs4" />
  <sodipodi:namedview
     id="base"
     pagecolor="#ffffff"
     bordercolor="#666666"
     borderopacity="1.0"
     inkscape:pageopacity="0.0"
     inkscape:pageshadow="2"
     inkscape:zoom="3.9779893"
     inkscape:cx="223.0995"
     inkscape:cy="71.076753"
     inkscape:document-units="px"
     inkscape:current-layer="layer1"
     showgrid="false"
     inkscape:window-width="1364"
     inkscape:window-height="768"
     inkscape:window-x="0"
     inkscape:window-y="0"
     inkscape:window-maximized="0"
     fit-margin-top="0"
     fit-margin-left="0"
     fit-margin-right="0"
     fit-margin-bottom="0" />
  <metadata
     id="metadata7">
    <rdf:RDF>
      <cc:Work
         rdf:about="">
        <dc:format>image/svg+xml</dc:format>
        <dc:type
           rdf:resource="http://purl.org/dc/dcmitype/StillImage" />
        <dc:title />
      </cc:Work>
    </rdf:RDF>
  </metadata>
  <g
     inkscape:label="Layer 1"
     inkscape:groupmode="layer"
     id="layer1"
     transform="translate(-80.896606,-67.062711)">
    <g
       style="font-style:normal;font-weight:normal;font-size:84.79183197px;line-height:125%;font-family:sans-serif;letter-spacing:0px;word-spacing:0px;fill:#000000;fill-opacity:1;stroke:none;stroke-width:1px;stroke-linecap:butt;stroke-linejoin:miter;stroke-opacity:1"
       id="text4136">
      <path
         d="m 193.55469,111.26636 q 0.16958,-0.25437 0,-0.59354 -0.16959,-0.33917 -0.59355,-0.59354 -0.33916,-0.25438 -0.76312,-0.33917 -0.42396,-0.0848 -0.76313,0.25438 -0.50875,0.59354 -1.35667,1.18708 -0.76313,0.50875 -1.95021,0.67834 -1.44146,0.50875 -4.40918,1.10229 -2.88292,0.50875 -6.69855,1.52625 -3.81563,0.93271 -8.14002,2.45897 -4.32438,1.52625 -8.56397,3.98521 -4.23959,2.37417 -8.14002,5.85064 -3.81563,3.39167 -6.61376,8.22481 -1.61105,2.79813 -2.45896,5.93542 -0.76313,3.05251 -0.84792,6.10502 0,3.0525 0.59354,5.85063 0.67834,2.71334 1.86542,4.83314 0.42396,0.76312 0.76313,0.59354 0.33916,-0.25438 -0.0848,-0.93271 -1.27188,-2.54376 -1.35667,-5.34189 -0.0848,-2.79813 0.50875,-5.51146 0.67833,-2.79814 1.86542,-5.2571 1.18708,-2.54375 2.45896,-4.57876 3.05251,-5.08751 7.37689,-9.07272 4.32438,-4.07001 9.41189,-6.95293 5.17231,-2.88293 10.85336,-4.32439 5.68105,-1.52625 11.27731,-1.52625 -1.78063,4.1548 -4.23959,9.3271 -2.45896,5.1723 -5.25709,10.68377 -2.71334,5.51147 -5.68106,11.19252 -2.88292,5.68106 -5.59626,10.85336 -4.57876,1.44146 -9.92064,3.64605 -5.34189,2.11979 -10.93815,5.00272 -5.59626,2.79813 -11.27731,6.1898 -5.59626,3.39167 -10.59898,7.12251 -5.00272,3.81564 -9.24231,7.88564 -4.23959,4.07001 -7.03772,8.22481 -2.54376,3.73084 -2.96772,6.78335 -0.42396,3.1373 0.84792,5.1723 1.18709,2.035 3.90043,2.79813 2.71333,0.76313 6.52897,-0.16958 5.34188,-1.27188 9.92064,-3.47647 4.57876,-2.11979 8.56398,-4.91792 4.07,-2.79814 7.54647,-6.10502 3.56126,-3.30688 6.61376,-6.86814 6.02022,-7.12251 11.02294,-14.66898 5.00272,-7.63127 9.66627,-15.6017 0.67833,-0.25437 1.44146,-0.50875 0.76313,-0.33917 1.10229,-0.42396 0.67834,-0.16958 0.67834,-0.59354 0.0848,-0.42396 -0.59354,-0.42396 -0.59355,0 -0.76313,-0.50875 -0.0848,-0.59355 0.25438,-1.27188 2.11979,-4.07001 4.91792,-9.24231 2.79813,-5.25709 5.68105,-10.93815 2.96772,-5.76584 5.85064,-11.53168 2.88292,-5.85064 5.34189,-11.19253 z m -27.21818,47.31385 q -1.69584,2.71333 -4.1548,6.61376 -2.37417,3.81563 -5.08751,7.88564 -2.62855,3.98521 -5.2571,7.63126 -2.62854,3.73084 -4.74834,6.10502 -2.79813,3.22209 -6.10501,6.44417 -3.22209,3.22209 -7.03772,6.02022 -3.81563,2.88293 -8.22481,5.08751 -4.40917,2.28938 -9.49668,3.64605 -3.22209,0.84792 -5.51147,0.42396 -2.28938,-0.42396 -3.22209,-1.95021 -1.01751,-1.52625 -0.42396,-4.1548 0.59354,-2.62855 3.1373,-6.1898 4.49396,-6.18981 11.10773,-11.95565 6.69855,-5.76585 14.32981,-10.68377 7.63127,-4.91793 15.6017,-8.73356 7.97043,-3.81563 15.09295,-6.1898 z"
         style="font-style:normal;font-variant:normal;font-weight:normal;font-stretch:normal;font-size:84.79183197px;line-height:125%;font-family:Scriptina;-inkscape-font-specification:'Scriptina, Normal';text-align:start;writing-mode:lr-tb;text-anchor:start;opacity:0.95999995;fill:#fe8000;fill-opacity:1"
         id="path4144" />
      <path
         d="m 207.4844,149.16831 q 0.25437,-0.42396 0.16958,-1.18708 0,-0.84792 -0.33917,-1.52626 -0.33916,-0.76312 -0.93271,-1.0175 -0.59354,-0.25437 -1.35667,0.50875 -2.54375,2.28938 -5.85063,5.76585 -3.30688,3.47646 -6.95293,7.12251 -3.56126,3.64605 -7.2921,7.03772 -3.64605,3.30688 -6.95293,5.34189 -2.1198,1.18708 -3.22209,0.25437 -1.0175,-1.0175 0,-4.49396 0.59354,-2.28938 2.1198,-5.34189 1.61104,-3.0525 3.56125,-6.27459 1.95021,-3.22209 4.07001,-6.35939 2.20459,-3.1373 4.1548,-5.51147 0.76313,-1.0175 0.67834,-1.52625 -0.0848,-0.59355 -0.59355,-0.76313 -0.50875,-0.16958 -1.27188,0.0848 -0.67833,0.16959 -1.10229,0.67834 -1.10229,1.27187 -2.62855,3.30688 -1.44146,1.95021 -3.13729,4.40917 -1.69584,2.45897 -3.39168,5.2571 -1.61104,2.71334 -3.0525,5.42667 -1.35667,2.62855 -2.28938,5.17231 -0.84792,2.54375 -1.0175,4.49396 -0.16959,2.1198 1.27187,3.64605 1.44146,1.44146 3.73084,0.67834 1.35667,-0.42396 4.1548,-2.71334 2.88293,-2.37417 6.18981,-5.34189 3.30688,-3.0525 6.52897,-6.10501 3.30688,-3.1373 5.34188,-5.1723 1.52626,-1.52625 2.03501,-0.67834 0.50875,0.76313 0,2.03501 -0.59355,1.44146 -1.35667,3.1373 -0.67834,1.61104 -1.27188,3.30688 -0.59354,1.69583 -1.0175,3.47646 -0.33917,1.78063 -0.33917,3.39168 0,0.84791 0.42396,1.69583 0.50875,0.76313 1.10229,1.44146 0.67834,0.59355 1.44147,0.93271 0.76312,0.33917 1.27187,0.16959 1.1023,-0.42396 2.28938,-1.18709 1.27188,-0.84792 2.1198,-1.78063 1.0175,-0.93271 0.84792,-1.61104 -0.0848,-0.76313 -1.44146,0.16958 -0.50876,0.33917 -1.35667,0.76313 -0.84792,0.33917 -1.44146,0.50875 -0.59355,0.16958 -1.27188,0.33917 -0.59355,0.16958 -1.0175,0.0848 -0.42396,-0.16959 -0.67834,-0.84792 -0.16958,-0.67833 0.0848,-2.20459 0.25438,-1.69583 1.27188,-4.23959 1.0175,-2.54375 2.28938,-5.1723 1.35667,-2.71334 2.79813,-5.25709 1.44146,-2.54376 2.62855,-4.32439 z"
         style="font-style:normal;font-variant:normal;font-weight:normal;font-stretch:normal;font-size:84.79183197px;line-height:125%;font-family:Scriptina;-inkscape-font-specification:'Scriptina, Normal';text-align:start;writing-mode:lr-tb;text-anchor:start;opacity:0.95999995;fill:#fe8000;fill-opacity:1"
         id="path4146" />
      <path
         d="m 209.38823,164.68522 q 0.0848,3.98521 1.69584,6.02022 1.61105,1.95021 4.07001,2.28938 2.45896,0.33916 5.51147,-0.93271 3.0525,-1.27188 6.02022,-3.90043 0.93271,-0.84792 1.95021,-1.95021 1.10229,-1.10229 1.78063,-1.95021 0.67833,-0.93271 0.33917,-1.0175 -0.25438,-0.16959 -0.93271,0.50875 -0.93271,1.0175 -1.86542,1.95021 -0.84792,0.84792 -1.95022,1.69584 -2.035,1.52625 -4.40917,2.54375 -2.28938,0.93271 -4.32438,0.67834 -1.95022,-0.25438 -3.30689,-2.03501 -1.27187,-1.78063 -1.10229,-5.76584 0.0848,-3.47647 1.0175,-7.80085 1.0175,-4.40918 2.45897,-8.39439 12.88835,-2.45897 25.26796,-5.93543 12.4644,-3.47647 24.58963,-8.14002 35.2734,-13.31231 43.32863,-28.65964 1.44146,-2.96771 1.86542,-6.274592 0.84792,-10.17502 -8.64877,-18.145452 -9.3271,-8.055224 -21.70671,-7.376889 -35.95173,2.289379 -67.32471,73.429723 l 0,0.25438 q -2.1198,4.91793 -3.30688,9.75106 -1.18709,4.74834 -1.01751,9.15752 z m 98.35853,-63.08513 q -7.03772,14.24503 -35.86695,26.87902 -12.12523,5.34188 -25.8615,9.49668 -13.73628,4.1548 -29.25319,7.37689 0.25438,-0.42396 0.42396,-0.84792 0.16959,-0.42396 0.33917,-0.84792 l -0.0848,0 q 4.66355,-10.85335 10.09023,-20.60441 5.42667,-9.83585 11.87085,-18.739 21.11317,-29.76193 41.63279,-30.69464 12.12523,-0.423959 20.60442,6.698555 8.47918,6.868138 7.54647,15.856072 -0.16958,1.441461 -0.50875,2.798131 -0.33917,1.271882 -0.93271,2.628542 z"
         style="font-style:normal;font-variant:normal;font-weight:normal;font-stretch:normal;font-size:84.79183197px;line-height:125%;font-family:Scriptina;-inkscape-font-specification:'Scriptina, Normal';text-align:start;writing-mode:lr-tb;text-anchor:start;opacity:0.95999995;fill:#fe8000;fill-opacity:1"
         id="path4148" />
      <path
         d="m 270.12834,148.2356 q 0.42396,-0.59354 0.0848,-0.76312 -0.25438,-0.16959 -0.67834,0.42395 -1.0175,0.93271 -2.88292,1.86542 -1.78063,0.93272 -3.56126,1.1023 -1.35667,0.16958 -3.30688,0.25437 -1.86542,0.0848 -4.07001,0.16959 -2.20458,0 -4.66355,0 -2.37417,0 -4.66355,0 4.23959,-0.67834 7.54648,-2.28938 3.30688,-1.61105 4.57876,-3.98522 0.76312,-1.27188 0.59354,-2.79813 -0.0848,-1.52625 -0.84792,-2.71334 -0.67833,-1.27187 -1.95021,-1.86542 -1.27188,-0.67833 -2.88292,-0.16958 -2.96772,1.18708 -6.69856,4.1548 -3.64605,2.88292 -7.03772,6.95293 -3.30688,3.98522 -5.68105,8.64877 -2.28938,4.66355 -2.54376,9.3271 -0.0848,1.69583 0.76313,3.22209 0.84792,1.44146 2.11979,2.54375 1.27188,1.1023 2.79813,1.69584 1.52626,0.50875 2.79813,0.25437 1.52626,-0.25437 3.1373,-0.84791 1.69584,-0.67834 3.22209,-1.44147 1.52625,-0.76312 2.79813,-1.52625 1.27188,-0.84792 2.20459,-1.52625 0.67833,-0.42396 0.33917,-0.67834 -0.33917,-0.33916 -1.01751,0.0848 -2.28937,1.27187 -5.51146,2.45896 -3.1373,1.18708 -5.93543,1.61104 -1.1023,0.0848 -2.20459,-0.0848 -1.0175,-0.25437 -1.86542,-0.84792 -0.76313,-0.67833 -1.27188,-1.86542 -0.42396,-1.18708 -0.33917,-3.0525 0.0848,-2.03501 0.76313,-3.90043 0.67834,-1.95021 1.61105,-3.73084 0.93271,-1.78063 1.95021,-3.30688 1.10229,-1.61104 2.035,-2.88292 2.54376,0 5.93543,0 3.39167,0 6.78335,-0.0848 3.39167,-0.0848 6.1898,-0.16959 2.88292,-0.0848 4.32438,-0.33916 2.37418,-0.33917 4.2396,-1.61105 1.95021,-1.35667 2.79813,-2.28938 z m -13.65149,-3.98521 q -1.0175,1.52625 -2.79813,2.79813 -1.69584,1.27187 -3.81563,2.28938 -2.1198,0.93271 -4.49397,1.44146 -2.37417,0.50875 -4.57876,0.50875 2.88292,-3.1373 6.10501,-6.02022 3.22209,-2.96772 6.35939,-4.74834 1.27188,-0.67834 2.20459,-0.67834 1.0175,-0.0848 1.52625,0.50875 0.50875,0.50875 0.42396,1.52625 -0.0848,1.01751 -0.93271,2.37418 z"
         style="font-style:normal;font-variant:normal;font-weight:normal;font-stretch:normal;font-size:84.79183197px;line-height:125%;font-family:Scriptina;-inkscape-font-specification:'Scriptina, Normal';text-align:start;writing-mode:lr-tb;text-anchor:start;opacity:0.95999995;fill:#fe8000;fill-opacity:1"
         id="path4150" />
      <path
         d="m 282.55631,163.32855 q 0.50875,-0.42396 0.76312,-0.93271 0.25438,-0.50875 0.16959,-0.76313 0,-0.25437 -0.33917,-0.16958 -0.33917,0.0848 -1.10229,0.84792 -1.18709,1.10229 -3.39168,2.71333 -2.20459,1.61105 -4.74834,3.22209 -2.54376,1.61105 -5.00272,2.88293 -2.37417,1.27187 -3.98521,1.61104 -0.84792,0.16959 -1.78063,0.25438 -0.84792,0 -1.44146,-0.50875 -0.59355,-0.50876 -0.59355,-1.61105 0.0848,-1.18708 1.1023,-3.30688 1.0175,-2.1198 1.27187,-2.79813 0.33917,-0.67834 0.42396,-0.93271 0.0848,-0.25438 0.16959,-0.50875 0.16958,-0.33917 0.84792,-1.69584 0.67833,-1.35667 2.20458,-4.23959 1.61105,-2.96771 4.49397,-8.39439 0.76313,-1.52625 0.42396,-2.45896 -0.33917,-0.93271 -1.10229,-1.18709 -0.76313,-0.25438 -1.61105,0.16958 -0.84792,0.33917 -1.0175,1.35667 -0.0848,0.33917 -0.76313,1.86542 -0.67833,1.44146 -1.69583,3.56126 -1.01751,2.035 -2.20459,4.57876 -1.18709,2.45896 -2.20459,4.91793 -1.0175,2.37417 -1.69584,4.57875 -0.67833,2.1198 -0.67833,3.47647 0,1.52625 0.76313,2.62855 0.84791,1.0175 1.86542,1.69583 1.10229,0.59355 2.11979,0.76313 1.1023,0.16958 1.61105,0 1.86542,-0.84792 4.40917,-2.37417 2.54376,-1.52626 5.00272,-3.22209 2.54375,-1.78063 4.57876,-3.39168 2.11979,-1.61104 3.1373,-2.62854 z m -5.34189,-26.20068 q 0.25438,-0.76312 -0.59354,-1.44146 -0.76313,-0.76313 -1.69584,-0.59354 -1.18708,0.25437 -3.1373,2.28938 -1.95021,1.95021 -1.95021,3.1373 0,1.10229 1.86542,1.44146 1.27188,0.25437 3.1373,-1.52626 2.1198,-1.86542 2.37417,-3.30688 z"
         style="font-style:normal;font-variant:normal;font-weight:normal;font-stretch:normal;font-size:84.79183197px;line-height:125%;font-family:Scriptina;-inkscape-font-specification:'Scriptina, Normal';text-align:start;writing-mode:lr-tb;text-anchor:start;opacity:0.95999995;fill:#fe8000;fill-opacity:1"
         id="path4152" />
      <path
         d="m 272.30576,172.31648 q 3.47647,-0.76312 4.32439,-1.86542 5.00271,-5.85063 9.75106,-10.42939 4.83313,-4.57876 9.66627,-7.97044 0.67833,-0.42395 1.35666,-0.42395 1.52626,0 1.52626,1.35666 0,0.50876 -0.25438,0.84792 -2.45896,3.39168 -4.66355,7.03772 -2.11979,3.56126 -4.07001,7.46169 -4.83313,9.24231 -5.34188,15.34732 -0.42396,5.42667 1.95021,7.97043 2.20459,2.20459 5.59626,1.86542 9.49669,-1.0175 17.6367,-9.07273 2.96772,-2.96771 4.91793,-5.68105 1.95021,-2.71334 2.71334,-5.1723 0.50875,-1.52625 0.50875,-2.45896 0,-1.95022 -1.44146,-1.95022 -0.59355,0 -1.35667,0.33917 -0.67834,0.33917 -0.67834,0.84792 0,0.25438 0.33917,0.25438 0.42396,0 0.93271,0.16958 0.50875,0.0848 0.84792,0.50875 0.42396,0.33917 0.42396,1.18709 0,4.1548 -8.05523,11.02293 -7.29209,6.18981 -12.12523,7.54648 -1.10229,0.33916 -2.45896,0.33916 -2.88292,0 -4.66355,-1.86542 -1.95021,-2.11979 -1.61105,-6.02022 0.33917,-5.93542 5.00272,-15.94086 4.83314,-10.09023 10.85336,-17.80629 1.27187,-1.52625 0.0848,-1.95021 -1.1023,-0.50875 -2.96772,0.33917 -0.93271,0.33917 -2.11979,1.35667 -2.20459,0.84792 -8.56398,5.93543 -2.71334,2.20459 -5.34188,4.49396 -2.54376,2.20459 -4.91793,4.49397 -0.50875,0.59354 -1.0175,0.59354 -0.67834,0 -0.67834,-0.93271 0,-0.67833 0.33917,-1.10229 1.69584,-3.81563 3.98522,-7.46168 2.37417,-3.73084 5.59626,-7.46168 0.25437,-0.25438 0.25437,-0.59354 -0.0848,-0.0848 -0.59354,0 -0.93271,0.16958 -1.44146,0.42395 -0.42396,0.25438 -0.67833,0.67834 -1.69584,2.035 -3.64605,4.74834 -1.95022,2.62855 -4.1548,6.02022 -4.66355,7.12252 -6.61377,11.27732 -0.50875,1.0175 -0.16958,1.35666 0.0848,0.50876 1.0175,0.33917 z"
         style="font-style:normal;font-variant:normal;font-weight:normal;font-stretch:normal;font-size:84.79183197px;line-height:125%;font-family:Scriptina;-inkscape-font-specification:'Scriptina, Normal';text-align:start;writing-mode:lr-tb;text-anchor:start;opacity:0.95999995;fill:#fe8000;fill-opacity:1"
         id="path4154" />
      <path
         d="m 299.63126,172.31648 q 3.47647,-0.76312 4.32439,-1.86542 5.00271,-5.85063 9.75106,-10.42939 4.83313,-4.57876 9.66627,-7.97044 0.67833,-0.42395 1.35666,-0.42395 1.52626,0 1.52626,1.35666 0,0.50876 -0.25438,0.84792 -2.45896,3.39168 -4.66355,7.03772 -2.11979,3.56126 -4.07001,7.46169 -4.83313,9.24231 -5.34188,15.34732 -0.42396,5.42667 1.95021,7.97043 2.20459,2.20459 5.59626,1.86542 9.49669,-1.0175 17.6367,-9.07273 2.96772,-2.96771 4.91793,-5.68105 1.95021,-2.71334 2.71334,-5.1723 0.50875,-1.52625 0.50875,-2.45896 0,-1.95022 -1.44146,-1.95022 -0.59355,0 -1.35667,0.33917 -0.67834,0.33917 -0.67834,0.84792 0,0.25438 0.33917,0.25438 0.42396,0 0.93271,0.16958 0.50875,0.0848 0.84792,0.50875 0.42396,0.33917 0.42396,1.18709 0,4.1548 -8.05523,11.02293 -7.29209,6.18981 -12.12523,7.54648 -1.10229,0.33916 -2.45896,0.33916 -2.88292,0 -4.66355,-1.86542 -1.95021,-2.11979 -1.61105,-6.02022 0.33917,-5.93542 5.00272,-15.94086 4.83314,-10.09023 10.85336,-17.80629 1.27187,-1.52625 0.0848,-1.95021 -1.1023,-0.50875 -2.96772,0.33917 -0.93271,0.33917 -2.11979,1.35667 -2.20459,0.84792 -8.56398,5.93543 -2.71334,2.20459 -5.34188,4.49396 -2.54376,2.20459 -4.91793,4.49397 -0.50875,0.59354 -1.0175,0.59354 -0.67834,0 -0.67834,-0.93271 0,-0.67833 0.33917,-1.10229 1.69584,-3.81563 3.98522,-7.46168 2.37417,-3.73084 5.59626,-7.46168 0.25437,-0.25438 0.25437,-0.59354 -0.0848,-0.0848 -0.59354,0 -0.93271,0.16958 -1.44146,0.42395 -0.42396,0.25438 -0.67833,0.67834 -1.69584,2.035 -3.64605,4.74834 -1.95022,2.62855 -4.1548,6.02022 -4.66355,7.12252 -6.61377,11.27732 -0.50875,1.0175 -0.16958,1.35666 0.0848,0.50876 1.0175,0.33917 z"
         style="font-style:normal;font-variant:normal;font-weight:normal;font-stretch:normal;font-size:84.79183197px;line-height:125%;font-family:Scriptina;-inkscape-font-specification:'Scriptina, Normal';text-align:start;writing-mode:lr-tb;text-anchor:start;opacity:0.95999995;fill:#fe8000;fill-opacity:1"
         id="path4156" />
    </g>
  </g>
</svg>
