<?xml version="1.0" encoding="UTF-8" standalone="no"?>
<!-- Created with Inkscape (http://www.inkscape.org/) -->

<svg
   xmlns:dc="http://purl.org/dc/elements/1.1/"
   xmlns:cc="http://creativecommons.org/ns#"
   xmlns:rdf="http://www.w3.org/1999/02/22-rdf-syntax-ns#"
   xmlns:svg="http://www.w3.org/2000/svg"
   xmlns="http://www.w3.org/2000/svg"
   xmlns:sodipodi="http://sodipodi.sourceforge.net/DTD/sodipodi-0.dtd"
   xmlns:inkscape="http://www.inkscape.org/namespaces/inkscape"
   width="190.73682mm"
   height="186.4019mm"
   viewBox="0 0 675.83911 660.47917"
   id="svg2"
   version="1.1"
   inkscape:version="0.91 r13725"
   sodipodi:docname="logo_circle.svg">
  <defs
     id="defs4">
    <clipPath
       clipPathUnits="userSpaceOnUse"
       id="clipPath4193">
      <rect
         style="opacity:0.95;fill:#000000;fill-opacity:1;stroke:none;stroke-width:5;stroke-miterlimit:4;stroke-dasharray:none;stroke-dashoffset:0.5;stroke-opacity:1"
         id="rect4195"
         width="155.84282"
         height="152.11961"
         x="-4.6216259"
         y="-5.1588964" />
    </clipPath>
  </defs>
  <sodipodi:namedview
     id="base"
     pagecolor="#ffffff"
     bordercolor="#666666"
     borderopacity="1.0"
     inkscape:pageopacity="0.0"
     inkscape:pageshadow="2"
     inkscape:zoom="0.35160791"
     inkscape:cx="-120.54028"
     inkscape:cy="179.76666"
     inkscape:document-units="px"
     inkscape:current-layer="layer1"
     showgrid="false"
     inkscape:window-width="1364"
     inkscape:window-height="750"
     inkscape:window-x="0"
     inkscape:window-y="18"
     inkscape:window-maximized="0"
     fit-margin-top="0"
     fit-margin-left="0"
     fit-margin-right="0"
     fit-margin-bottom="0" />
  <metadata
     id="metadata7">
    <rdf:RDF>
      <cc:Work
         rdf:about="">
        <dc:format>image/svg+xml</dc:format>
        <dc:type
           rdf:resource="http://purl.org/dc/dcmitype/StillImage" />
        <dc:title />
      </cc:Work>
    </rdf:RDF>
  </metadata>
  <g
     inkscape:label="Layer 1"
     inkscape:groupmode="layer"
     id="layer1"
     transform="translate(-33.855552,-34.810846)">
    <ellipse
       style="opacity:0.95;fill:#1515ff;fill-opacity:0;stroke:none;stroke-width:5;stroke-miterlimit:4;stroke-dasharray:none;stroke-dashoffset:0.5;stroke-opacity:1"
       id="path4219"
       ry="321.03568"
       rx="329.39539"
       cy="362.53302"
       cx="371.64026" />
    <g
       id="g4153">
      <g
         id="text4136-6"
         style="font-style:normal;font-weight:normal;font-size:420.29745483px;line-height:125%;font-family:sans-serif;letter-spacing:0px;word-spacing:0px;fill:#000000;fill-opacity:1;stroke:none;stroke-width:1px;stroke-linecap:butt;stroke-linejoin:miter;stroke-opacity:1">
        <path
           id="path4151"
           style="font-style:normal;font-variant:normal;font-weight:normal;font-stretch:normal;font-size:420.29745483px;line-height:125%;font-family:Scriptina;-inkscape-font-specification:'Scriptina, Normal';text-align:start;writing-mode:lr-tb;text-anchor:start;opacity:0.95999995;fill:#fe8000;fill-opacity:1"
           d="m 567.60063,103.50331 q 0.8406,-1.26089 0,-2.94208 -0.84059,-1.681188 -2.94208,-2.94208 -1.68119,-1.260893 -3.78267,-1.68119 -2.10149,-0.420298 -3.78268,1.260892 -2.52179,2.942078 -6.72476,5.884168 -3.78268,2.52178 -9.66684,3.36238 -7.14506,2.52178 -21.85547,5.46386 -14.29011,2.52179 -33.2035,7.56536 -18.91338,4.62327 -40.34855,12.18862 -21.43517,7.56536 -42.45005,19.75398 -21.01487,11.76833 -40.34855,29.00053 -18.91339,16.8119 -32.7832,40.76885 -7.98566,13.86982 -12.18863,29.42082 -3.78268,15.13071 -4.20298,30.26142 0,15.13071 2.94209,29.00052 3.36238,13.44952 9.24654,23.95696 2.10149,3.78268 3.78268,2.94208 1.68119,-1.26089 -0.4203,-4.62327 -6.30446,-12.60892 -6.72476,-26.47874 -0.4203,-13.86982 2.52179,-27.31933 3.36238,-13.86982 9.24654,-26.05845 5.88416,-12.60892 12.18863,-22.69606 15.1307,-25.21785 36.56587,-44.97183 21.43517,-20.17428 46.65302,-34.46439 25.63815,-14.29011 53.79808,-21.43517 28.15993,-7.56535 55.89956,-7.56535 -8.82625,20.59457 -21.01488,46.23272 -12.18862,25.63814 -26.05844,52.95748 -13.44952,27.31933 -28.15993,55.47926 -14.29011,28.15993 -27.73963,53.79807 -22.69606,7.14506 -49.1748,18.0728 -26.47874,10.50743 -54.21837,24.79755 -27.73963,13.86981 -55.89956,30.68171 -27.73964,16.8119 -52.53719,35.30499 -24.79755,18.91338 -45.81242,39.08766 -21.01487,20.17428 -34.88469,40.76885 -12.60892,18.49309 -14.71041,33.6238 -2.10149,15.551 4.20298,25.63814 5.88416,10.08714 19.33368,13.86982 13.44952,3.78268 32.3629,-0.8406 26.47874,-6.30446 49.17481,-17.23219 22.69606,-10.50744 42.45004,-24.37725 20.17428,-13.86982 37.40647,-30.26142 17.65249,-16.3916 32.7832,-34.04409 29.84112,-35.30499 54.63867,-72.71146 24.79755,-37.82678 47.91391,-77.33474 3.36238,-1.26089 7.14506,-2.52178 3.78268,-1.68119 5.46387,-2.10149 3.36238,-0.84059 3.36238,-2.94208 0.42029,-2.10149 -2.94209,-2.10149 -2.94208,0 -3.78267,-2.52178 -0.4203,-2.94208 1.26089,-6.30446 10.50744,-20.17428 24.37725,-45.81243 13.86982,-26.05844 28.15993,-54.21837 14.71041,-28.58023 29.00052,-57.16045 14.29012,-29.00053 26.47874,-55.47927 z M 432.68515,338.02929 q -8.40595,13.44952 -20.59457,32.78321 -11.76833,18.91338 -25.21785,39.08766 -13.02922,19.75398 -26.05844,37.82677 -13.02922,18.49309 -23.53666,30.26142 -13.86982,15.9713 -30.26142,31.9426 -15.9713,15.97131 -34.88469,29.84112 -18.91338,14.29012 -40.76885,25.21785 -21.85547,11.34803 -47.07331,18.07279 -15.97131,4.20297 -27.31934,2.10149 -11.34803,-2.10149 -15.9713,-9.66684 -5.04357,-7.56536 -2.10149,-20.59458 2.94208,-13.02922 15.55101,-30.68171 22.27576,-30.68172 55.05896,-59.26194 33.2035,-28.58023 71.03027,-52.95748 37.82677,-24.37726 77.33473,-43.29064 39.50797,-18.91339 74.81295,-30.68172 z" />
      </g>
      <ellipse
         ry="321.2796"
         rx="328.95956"
         cy="365.05045"
         cx="371.77512"
         id="path4168"
         style="opacity:0.95;fill:none;fill-opacity:1;stroke:#fe8000;stroke-width:17.91997719;stroke-miterlimit:4;stroke-dasharray:none;stroke-dashoffset:0.5;stroke-opacity:1" />
    </g>
  </g>
</svg>
